<svg width="108" height="125" viewBox="0 0 108 125" fill="none" xmlns="http://www.w3.org/2000/svg">
<path d="M108 25V37.5C101.382 37.5 96 43.1063 96 50V100C96 113.788 85.236 125 72 125H18V50V43.75H6L0 31.25L10.044 17.475L10.056 17.5063C12.144 15.1688 14.88 13.475 18 12.8125V0C18 0 42 6.25 42 25C42 29.25 42.054 42.1688 42.09 50H48C61.254 50 72 61.1938 72 75V112.5C78.618 112.5 84 106.894 84 100V50C84 36.2125 94.764 25 108 25Z" fill="#EF6C00"/>
<path opacity="0.3" d="M84 50V100C84 106.875 78.6 112.5 72 112.5V125C72.114 125 72.36 125 72.6 124.938C73.56 124.875 75.426 124.563 77.946 124.188C88.32 121.438 96 111.688 96 100V50C96 43.125 101.4 37.5 108 37.5V25C94.74 25 84 36.1875 84 50ZM30 125H42C42 118.125 47.4 112.5 54 112.5V100C40.74 100 30 111.188 30 125Z" fill="black"/>
</svg>
