<svg width="1630" height="351" viewBox="0 0 1630 351" fill="none" xmlns="http://www.w3.org/2000/svg">
<path fill-rule="evenodd" clip-rule="evenodd" d="M375.71 170C395.23 170 412.513 179.578 423.115 194.291C424.597 194.164 426.098 194.098 427.613 194.098C446.321 194.098 462.709 204.032 471.791 218.912C474.232 218.442 476.753 218.196 479.331 218.196C501.24 218.196 519 235.956 519 257.865C519 279.773 501.24 297.534 479.331 297.534V297.535H308.05L308.05 297.535C280.408 297.535 258 275.127 258 247.485C258 219.843 280.408 197.435 308.05 197.435C313.832 197.435 319.385 198.416 324.552 200.219C334.494 182.203 353.677 170 375.71 170Z" fill="#E8E7FF"/>
<path fill-rule="evenodd" clip-rule="evenodd" d="M1295.54 199.062C1307.72 199.062 1318.33 205.766 1323.88 215.685C1327.58 214.222 1331.61 213.418 1335.82 213.418C1351.53 213.418 1364.64 224.579 1367.64 239.405C1372.8 244.409 1376 251.413 1376 259.166C1376 274.373 1363.67 286.701 1348.47 286.701C1343.56 286.701 1338.95 285.418 1334.97 283.17C1329.2 288.425 1321.53 291.629 1313.11 291.629C1302.75 291.629 1293.51 286.771 1287.57 279.209C1281.95 283.887 1274.71 286.701 1266.83 286.701C1248.9 286.701 1234.36 272.166 1234.36 254.238C1234.36 237.077 1247.68 223.027 1264.54 221.854C1268.66 208.648 1280.98 199.062 1295.54 199.062Z" fill="#E8E7FF"/>
<path fill-rule="evenodd" clip-rule="evenodd" d="M216.176 7C228.353 7 238.964 13.7043 244.519 23.623C248.215 22.1602 252.243 21.3563 256.46 21.3563C272.171 21.3563 285.276 32.5175 288.277 47.3436C293.433 52.3476 296.637 59.3518 296.637 67.1044C296.637 82.3113 284.309 94.639 269.102 94.639C264.197 94.639 259.591 93.3563 255.603 91.1081C249.834 96.3632 242.165 99.5673 233.747 99.5673C223.382 99.5673 214.151 94.7097 208.208 87.1469C202.583 91.8253 195.351 94.639 187.463 94.639C169.534 94.639 155 80.1048 155 62.1761C155 45.0155 168.315 30.9649 185.178 29.7923C189.293 16.5865 201.615 7 216.176 7Z" fill="#E8E7FF"/>
<path fill-rule="evenodd" clip-rule="evenodd" d="M1244.79 241.464C1246.37 235.126 1246.42 228.31 1244.61 221.553C1238.92 200.319 1217.09 187.718 1195.86 193.408C1183.81 196.635 1174.55 205.053 1169.82 215.61C1161.61 210.6 1151.45 208.831 1141.42 211.516C1128.15 215.072 1118.57 225.519 1115.49 237.976C1112.56 238.025 1109.6 238.429 1106.64 239.221C1087.22 244.425 1075.7 264.388 1080.9 283.81C1086.1 303.232 1106.07 314.758 1125.49 309.554C1131.94 307.827 1137.51 304.474 1141.9 300.054C1150.79 308.991 1164.09 313.052 1177.15 309.554C1184.47 307.594 1190.66 303.538 1195.26 298.207C1204.32 311.481 1221.08 318.25 1237.48 313.856C1258.24 308.294 1270.56 286.96 1264.99 266.204C1261.99 255.008 1254.4 246.267 1244.79 241.464Z" fill="#CECCFF"/>
<path fill-rule="evenodd" clip-rule="evenodd" d="M178.792 60.4638C180.374 54.1263 180.416 47.3098 178.605 40.5531C172.916 19.3195 151.09 6.7185 129.857 12.408C117.813 15.635 108.547 24.0529 103.82 34.6096C95.6121 29.5999 85.4464 27.8308 75.4249 30.5161C62.1537 34.0721 52.5693 44.5193 49.49 56.9761C46.5646 57.0247 43.5979 57.4292 40.6437 58.2207C21.2217 63.4249 9.69581 83.3883 14.8999 102.81C20.104 122.232 40.0674 133.758 59.4895 128.554C65.9358 126.827 71.5123 123.474 75.8959 119.054C84.7932 127.991 98.0931 132.052 111.148 128.554C118.465 126.594 124.661 122.538 129.264 117.207C138.32 130.481 155.082 137.25 171.483 132.856C192.239 127.294 204.556 105.96 198.994 85.2045C195.994 74.0082 188.405 65.2673 178.792 60.4638Z" fill="#CECCFF"/>
<path fill-rule="evenodd" clip-rule="evenodd" d="M1598.79 60.4639C1600.37 54.1264 1600.42 47.3098 1598.61 40.5532C1592.92 19.3196 1571.09 6.71856 1549.86 12.4081C1537.81 15.6351 1528.55 24.053 1523.82 34.6096C1515.61 29.5999 1505.45 27.8309 1495.42 30.5162C1482.15 34.0722 1472.57 44.5193 1469.49 56.9762C1466.56 57.0247 1463.6 57.4292 1460.64 58.2208C1441.22 63.4249 1429.7 83.3883 1434.9 102.81C1440.1 122.232 1460.07 133.758 1479.49 128.554C1485.94 126.827 1491.51 123.474 1495.9 119.054C1504.79 127.991 1518.09 132.052 1531.15 128.554C1538.47 126.594 1544.66 122.538 1549.26 117.207C1558.32 130.481 1575.08 137.25 1591.48 132.856C1612.24 127.294 1624.56 105.96 1618.99 85.2045C1615.99 74.0082 1608.4 65.2674 1598.79 60.4639Z" fill="#CECCFF"/>
<path fill-rule="evenodd" clip-rule="evenodd" d="M1005.8 66.8325C1007.44 60.2467 1007.48 53.1631 1005.6 46.1418C999.689 24.0764 977.009 10.9818 954.943 16.8942C942.428 20.2476 932.799 28.9953 927.887 39.9654C919.357 34.7595 908.794 32.9212 898.379 35.7116C884.588 39.4069 874.629 50.2633 871.429 63.2082C868.389 63.2586 865.306 63.6789 862.236 64.5015C842.053 69.9095 830.076 90.6549 835.484 110.838C840.892 131.021 861.637 142.998 881.82 137.59C888.519 135.795 894.314 132.31 898.869 127.718C908.115 137.005 921.936 141.225 935.502 137.59C943.106 135.553 949.544 131.339 954.328 125.798C963.738 139.593 981.157 146.627 998.201 142.06C1019.77 136.281 1032.57 114.111 1026.79 92.5423C1023.67 80.9074 1015.78 71.8241 1005.8 66.8325Z" fill="#E8E7FF"/>
</svg>
