<svg width="109" height="92" viewBox="0 0 109 92" fill="none" xmlns="http://www.w3.org/2000/svg">
<path d="M48.7226 63.2202C47.4311 63.8047 46.0797 64.2755 44.6519 64.5623L54.5643 92H42.9844L32.4835 62.9334C27.2685 60.379 23.3668 55.5896 22.1788 49.772L16.348 27.0588H0V10.8235H5.72181C6.98606 4.64871 12.479 0 19.0727 0C23.4649 0 27.3285 2.09976 29.8188 5.30353L43.7855 27.3511C44.4939 27.4593 87.7508 38.299 87.7508 38.299C87.7508 38.299 89.778 38.9701 90.7153 39.4572L100.649 29.6023L106.431 35.3442L96.5025 45.2045C97.4833 47.0661 98.0882 49.1605 98.0882 51.4118V71.9873L108.971 92H96.5842L76.0293 54.2042L48.7226 63.2202Z" fill="#BF360C"/>
<path opacity="0.3" d="M16.348 27.0588H0V10.8235H5.72181L16.348 27.0588Z" fill="black"/>
<path opacity="0.4" d="M32.4837 62.9334C27.2686 60.379 23.3669 55.5896 22.1789 49.772L16.3481 27.0588C16.3481 27.0588 29.8189 27.0588 29.8189 5.30352L29.917 5.24399L43.7856 27.351C44.4995 27.4593 32.4837 62.9334 32.4837 62.9334ZM35.1647 70.3529L42.9845 92H54.5644L46.7446 70.3529H35.1647ZM90.699 81.1765L96.5843 92H108.971L103.085 81.1765H90.699Z" fill="white"/>
</svg>
